# xmcd
#
# Track frame offsets: 
#        150
#        8702
#        18450
#        29890
#        40820
#        53055
#        62985
#        75458
#        92413
#        104333
#        121410
#        130973
#        144710
#        155468
#        167845
#        177232
#        193565
#        203810
#        221287
#        233320
#        245845
#        255835
#        269983
#        283540
#
# Disc length: 3904 seconds
#
# Revision: 5
# Processed by: cddbd v1.5.2PL0 Copyright (c) Steve Scherf et al.
# Submitted via: ExactAudioCopyFreeDBPlugin 1.0
#
DISCID=520f3e18
DTITLE=Various Artist - Bluegrass From Heaven
DYEAR=1995
DGENRE=Bluegrass
TTITLE0=Carl Story - Somebody Touched Me
TTITLE1=Bluegrass Cardinals - Just A Little Talk With Jesus
TTITLE2=Eddie Adcock Band - Go Down Yonder, Moses
TTITLE3=Carl Story - I Saw The Light
TTITLE4=Merle Travis - I Am A Pilgrim
TTITLE5=Don Reno and Bill Harrell - I'm Using My Bible For A Road Map
TTITLE6=Mac Wiseman - These Hands
TTITLE7=Donna Stoneman - Life's Railway To Heaven
TTITLE8=Bass Mountain Boys - A Beautiful Life
TTITLE9=Betty J. Robinson and Nashville Grass - Tramp On The Street
TTITLE10=Don Reno and Bill Harrell - The Lord's Last Supper
TTITLE11=Jim and Jesse McReynolds - Great Speckled Bird
TTITLE12=Osborne Brothers - I'll Fly Away
TTITLE13=Mac Wiseman - Dust On The Bible
TTITLE14=Grandpa Jones and Browns Ferry Four - I'll Meet You In The Morn
TTITLE14=ing
TTITLE15=Osborne Brothers - I Hear A Sweet Voice Calling
TTITLE16=Carl Story - The Fourth Man
TTITLE17=Osborne Brothers - White Dove
TTITLE18=Jim and Jesse McReynolds - Swing Low, Sweet Chariot
TTITLE19=Betty J. Robinson and Nashville Grass - Unclouded Day
TTITLE20=Bass Mountain Boys - The Story Of Pharisees
TTITLE21=Lester Flatt and Nashville Grass - What Would You Give In Excha
TTITLE21=nge For Your Soul
TTITLE22=Eddie Adcock and Martha - Living Waters
TTITLE23=Betty J. Robinson and Nashville Grass - Palms Of Victory
EXTD=
EXTT0=
EXTT1=
EXTT2=
EXTT3=
EXTT4=
EXTT5=
EXTT6=
EXTT7=
EXTT8=
EXTT9=
EXTT10=
EXTT11=
EXTT12=
EXTT13=
EXTT14=
EXTT15=
EXTT16=
EXTT17=
EXTT18=
EXTT19=
EXTT20=
EXTT21=
EXTT22=
EXTT23=
PLAYORDER=
